<?xml version="1.0" encoding="UTF-8" standalone="no"?>
<!-- Created with Inkscape (http://www.inkscape.org/) -->

<svg
   xmlns:dc="http://purl.org/dc/elements/1.1/"
   xmlns:cc="http://creativecommons.org/ns#"
   xmlns:rdf="http://www.w3.org/1999/02/22-rdf-syntax-ns#"
   xmlns:svg="http://www.w3.org/2000/svg"
   xmlns="http://www.w3.org/2000/svg"
   xmlns:sodipodi="http://sodipodi.sourceforge.net/DTD/sodipodi-0.dtd"
   xmlns:inkscape="http://www.inkscape.org/namespaces/inkscape"
   id="svg3434"
   version="1.1"
   inkscape:version="0.91 r13725"
   xml:space="preserve"
   width="276.25"
   height="90"
   viewBox="0 0 276.25 90"
   sodipodi:docname="Logo_300_inkscape.svg"><metadata
     id="metadata3440"><rdf:RDF><cc:Work
         rdf:about=""><dc:format>image/svg+xml</dc:format><dc:type
           rdf:resource="http://purl.org/dc/dcmitype/StillImage" /><dc:title></dc:title></cc:Work></rdf:RDF></metadata><defs
     id="defs3438" /><sodipodi:namedview
     pagecolor="#ffffff"
     bordercolor="#666666"
     borderopacity="1"
     objecttolerance="10"
     gridtolerance="10"
     guidetolerance="10"
     inkscape:pageopacity="0"
     inkscape:pageshadow="2"
     inkscape:window-width="1280"
     inkscape:window-height="866"
     id="namedview3436"
     showgrid="false"
     inkscape:zoom="4.0977376"
     inkscape:cx="138.125"
     inkscape:cy="45"
     inkscape:window-x="0"
     inkscape:window-y="0"
     inkscape:window-maximized="1"
     inkscape:current-layer="g3442" /><g
     id="g3442"
     inkscape:groupmode="layer"
     inkscape:label="ink_ext_XXXXXX"
     transform="matrix(1.25,0,0,-1.25,0,90)"><g
       id="g3444"
       transform="scale(0.1,0.1)"><path
         d="m 1204.48,506.668 0,-22.438 -92.49,0 c -6.24,0 -10.97,-2.257 -14.2,-6.777 -2.8,-3.875 -4.2,-9.09 -4.2,-15.656 0,-6.567 1.4,-11.785 4.2,-15.656 3.23,-4.52 7.96,-6.782 14.2,-6.782 l 92.49,0 0,-22.433 -96.04,0 c -13.99,0 -24.69,3.926 -32.12,11.785 -7.32,7.961 -10.97,18.988 -10.97,33.086 0,14.094 3.65,25.07 10.97,32.926 7.43,7.965 18.13,11.945 32.12,11.945 l 96.04,0"
         style="fill:#231f20;fill-opacity:1;fill-rule:nonzero;stroke:none"
         id="path3446"
         inkscape:connector-curvature="0" /><path
         d="m 1264.84,506.645 86.52,0 c 9.25,0 17.1,-3.282 23.56,-9.844 6.56,-6.457 9.85,-14.313 9.85,-23.567 l 0,-23.058 c 0,-9.149 -3.29,-17.004 -9.85,-23.567 -6.46,-6.562 -14.31,-9.843 -23.56,-9.843 l -86.52,0 c -9.15,0 -17,3.281 -23.57,9.843 -6.56,6.563 -9.84,14.418 -9.84,23.567 l 0,23.058 c 0,9.254 3.28,17.11 9.84,23.567 6.57,6.562 14.42,9.844 23.57,9.844 z m -1.61,-26.204 c -2.69,-2.695 -4.04,-5.918 -4.04,-9.687 l 0,-17.621 c 0,-3.766 1.35,-6.992 4.04,-9.684 2.69,-2.691 5.91,-4.035 9.68,-4.035 l 69.08,0 c 3.77,0 7,1.344 9.69,4.035 2.69,2.692 4.03,5.918 4.03,9.684 l 0,17.621 c 0,3.769 -1.34,6.992 -4.03,9.687 -2.69,2.688 -5.92,4.032 -9.69,4.032 l -69.08,0 c -3.77,0 -6.99,-1.344 -9.68,-4.032"
         style="fill:#231f20;fill-opacity:1;fill-rule:evenodd;stroke:none"
         id="path3448"
         inkscape:connector-curvature="0" /><path
         d="m 1524.54,474.871 c 0,6.238 -3.12,9.359 -9.36,9.359 l -79.73,0 0,-67.304 -26.96,0 0,89.742 111.05,0 c 10.76,0 18.88,-2.906 24.37,-8.715 5.06,-5.383 7.58,-11.621 7.58,-18.726 l 0,-62.301 -26.95,0 0,57.945"
         style="fill:#231f20;fill-opacity:1;fill-rule:nonzero;stroke:none"
         id="path3450"
         inkscape:connector-curvature="0" /><path
         d="m 1714.46,416.926 -81.34,0 c -9.48,0 -16.31,2.152 -20.5,6.457 -2.69,2.797 -4.47,5.972 -5.33,9.523 -0.65,2.367 -0.97,6.024 -0.97,10.973 l 0,40.34 -16.14,0 0,22.449 16.14,0 0,35.832 26.96,0 0,-35.832 81.18,0 0,-22.449 -81.18,0 0,-32.321 c 0,-4.949 1.13,-8.339 3.39,-10.168 1.83,-1.507 4.89,-2.257 9.2,-2.257 l 68.59,0 0,-22.547"
         style="fill:#231f20;fill-opacity:1;fill-rule:nonzero;stroke:none"
         id="path3452"
         inkscape:connector-curvature="0" /><path
         d="m 1841.49,475.031 c 0,3.016 -0.97,5.383 -2.91,7.102 -1.4,1.289 -3.55,1.937 -6.45,1.937 l -66.99,0.16 0,-67.304 -26.95,0 0,89.742 98.45,0.324 c 10.55,0 18.62,-2.961 24.22,-8.879 5.05,-5.379 7.59,-11.57 7.59,-18.562 l 0,-9.363 -26.96,0 0,4.843"
         style="fill:#231f20;fill-opacity:1;fill-rule:nonzero;stroke:none"
         id="path3454"
         inkscape:connector-curvature="0" /><path
         d="m 2113.13,416.926 c -20.66,0 -33.95,8.39 -39.86,25.179 -2.26,6.458 -3.39,13.235 -3.39,20.336 l 0,44.551 23.89,0 0,-46.215 c 0,-6.996 2.15,-12.484 6.46,-16.464 3.44,-3.231 8.39,-4.84 14.84,-4.84 l 89.9,0 0,-22.547 -91.84,0"
         style="fill:#231f20;fill-opacity:1;fill-rule:nonzero;stroke:none"
         id="path3456"
         inkscape:connector-curvature="0" /><path
         d="m 1924.52,480.441 c -2.69,-2.695 -4.04,-5.918 -4.04,-9.687 l 0,-17.996 c 0,-3.766 1.35,-6.992 4.04,-9.688 2.69,-2.687 5.92,-4.031 9.68,-4.031 l 69.09,0 c 3.76,0 6.99,1.344 9.68,4.031 2.69,2.696 4.03,5.922 4.03,9.688 l 0,17.996 c 0,3.769 -1.34,6.992 -4.03,9.687 -2.69,2.688 -5.92,4.032 -9.68,4.032 l -69.09,0 c -3.76,0 -6.99,-1.344 -9.68,-4.032 z m 1.61,26.204 86.52,0 c 9.25,0 17.11,-3.282 23.56,-9.844 6.57,-6.457 9.85,-14.313 9.85,-23.567 l 0,-23.058 c 0,-9.149 -3.28,-17.004 -9.85,-23.567 -6.45,-6.562 -14.31,-9.843 -23.56,-9.843 l -86.52,0 c -9.14,0 -17,3.281 -23.56,9.843 -6.57,6.563 -9.85,14.418 -9.85,23.567 l 0,23.058 c 0,9.254 3.28,17.11 9.85,23.567 6.56,6.562 14.42,9.844 23.56,9.844"
         style="fill:#231f20;fill-opacity:1;fill-rule:evenodd;stroke:none"
         id="path3458"
         inkscape:connector-curvature="0" /><path
         d="m 257.516,415.629 115.308,0 0,130.398 -27.988,0 0,-37.211 -87.32,0 c -9.164,0 -17.153,-1.789 -23.969,-5.363 -13.856,-7.265 -20.781,-21.004 -20.781,-41.23 0,-9.946 1.785,-18.438 5.363,-25.477 7.148,-14.078 20.277,-21.117 39.387,-21.117 z m 192.007,21.957 c -5.14,0 -9.386,1.453 -12.738,4.355 -1.785,1.454 -3.801,4.582 -6.199,9.887 l 116.316,0 0,20.953 -116.152,0.336 c 2.461,4.918 4.469,8.043 6.035,9.383 3.352,2.906 7.598,4.359 12.738,4.359 l 97.379,0 0,21.957 -101.066,0 c -14.523,0 -25.641,-4.132 -33.352,-12.402 -7.597,-8.16 -11.398,-19.555 -11.398,-34.191 0,-14.637 3.801,-26.09 11.398,-34.36 7.711,-8.156 18.829,-12.234 33.352,-12.234 l 101.066,0 0,21.957 -97.379,0 z m 172.215,-21.957 95.367,0 0,22.031 -94.046,0 c -6.704,0 -11.844,1.676 -15.418,5.028 -4.469,4.136 -6.703,9.832 -6.703,17.097 l 0,49.367 -24.122,0 0,-46.257 c 0,-7.375 1.176,-14.415 3.52,-21.122 6.148,-17.429 19.945,-26.144 41.402,-26.144 z m 232.731,0 0,21.957 -71.231,0 c -4.468,0 -7.652,0.781 -9.554,2.344 -2.348,1.902 -3.52,5.422 -3.52,10.562 l 0,36.367 84.305,0 0,21.957 -84.305,0 0,37.211 -27.992,0 0,-37.211 -16.758,0 0,-21.957 16.758,0 0,-43.242 c 0,-5.14 0.336,-8.937 1.008,-11.394 0.894,-3.688 2.738,-6.985 5.531,-9.891 4.359,-4.469 11.453,-6.703 21.285,-6.703 l 84.473,0 z M 38.75,393.75 c -209.59,38.27 607.77,434.301 905.406,282.324 71.534,-36.527 94.974,-120.035 89.314,-216.293 l 0,12.664 c 0,6.481 -0.5,11.508 -1.51,15.086 -1.45,4.805 -4.19,8.996 -8.21,12.571 -6.48,5.808 -15.25,8.714 -26.312,8.714 l -111.797,0 0,-21.957 104.922,0 c 3.242,0 5.64,-0.222 7.207,-0.671 5.14,-1.45 7.71,-5.641 7.71,-12.571 l -96.875,-0.836 c -9.05,0 -16.257,-2.515 -21.621,-7.543 -5.254,-4.914 -7.879,-11.898 -7.879,-20.949 0,-9.051 2.625,-16.09 7.879,-21.117 5.25,-5.027 12.457,-7.543 21.621,-7.543 l 120.405,0 C 1001.59,220.82 873.188,-3.22656 787.129,1.89844 684.242,8.02734 760.641,160.41 705.762,243.164 558.375,465.406 291.199,347.656 38.75,393.75 Z m 222.449,91.77 83.637,0 0,-46.594 -83.637,0 c -6.48,0 -11.394,2.347 -14.75,7.039 -2.902,4.019 -4.355,9.441 -4.355,16.258 0,6.816 1.453,12.234 4.355,16.257 3.356,4.692 8.27,7.04 14.75,7.04 z m 744.281,-47.934 -89.503,0 c -5.918,0 -8.883,2.344 -8.883,7.035 0,4.809 2.965,7.207 8.883,7.207 l 89.503,0 0,-14.242"
         style="fill:#176fc1;fill-opacity:1;fill-rule:evenodd;stroke:none"
         id="path3460"
         inkscape:connector-curvature="0" /></g></g></svg>